<?xml version="1.0" encoding="UTF-8"?>
<svg width="93px" height="30px" viewBox="0 0 93 30" version="1.1" xmlns="http://www.w3.org/2000/svg" xmlns:xlink="http://www.w3.org/1999/xlink">
    <!-- Generator: Sketch 59 (86127) - https://sketch.com -->
    <title>Purdue_University_wordmark</title>
    <desc>Created with Sketch.</desc>
    <g id="Adding---post-graduate-program-cards" stroke="none" stroke-width="1" fill="none" fill-rule="evenodd">
        <g id="Home-page_Purdue" transform="translate(-749.000000, -760.000000)" fill-rule="nonzero">
            <g id="Purdue_University_wordmark" transform="translate(749.000000, 760.000000)">
                <g id="Group" transform="translate(46.472647, 15.099351) scale(-1, 1) rotate(-180.000000) translate(-46.472647, -15.099351) translate(0.070336, 0.245455)">
                    <g transform="translate(0.363999, 0.362932)" id="Shape">
                        <path d="M0.32237395,9.96116883 L0.32237395,11.2882597 L0.836765546,11.2882597 C2.37880714,11.2882597 2.80199622,11.9212208 2.80199622,13.5795195 L2.80199622,24.8264026 C2.80199622,26.4850909 2.37880714,27.1184026 0.836765546,27.1184026 L0.32237395,27.1184026 L0.32237395,28.4447532 C1.71323193,28.3851078 3.07415798,28.3854 4.46517227,28.3854 C5.85603025,28.3854 7.24782605,28.3851105 8.63923109,28.4447532 L8.63923109,27.1184026 L8.15535756,27.1184026 C6.58275882,27.1184026 6.15882731,26.5150519 6.15882731,24.8264026 L6.15882731,20.4241948 L8.63923109,20.4241948 C13.1446513,20.4241948 15.3227269,18.8565974 15.3227269,15.2077013 C15.3219454,11.5897403 12.9629496,9.96116883 8.09373529,9.96116883 L0.321983193,9.96116883 L0.32237395,9.96116883 Z M6.15871008,11.7098571 L8.00335336,11.7098571 C10.6642084,11.7098571 12.055887,12.915974 12.055887,15.1478571 C12.055887,17.6206364 10.725479,18.7958961 7.97365588,18.7958961 L6.15878824,18.7958961 L6.15878824,11.7100519 L6.15871008,11.7098571 Z M16.4222213,13.6579091 L16.4222213,14.7194416 L16.8092537,14.7194416 C17.8737521,14.7194416 18.1402479,15.2980909 18.1402479,16.5525974 L18.1402479,23.331039 C18.1402479,26.9255065 20.14811,28.7824675 23.9945588,28.7824675 C28.0838235,28.7824675 29.7285168,26.9975455 29.7285168,22.9924675 L29.7285168,16.5525974 C29.7285168,15.2734675 30.0190714,14.7194416 31.0587684,14.7194416 L31.4945399,14.7194416 L31.4945399,13.6579091 C30.5504726,13.6821136 29.5826474,13.7058506 28.6150176,13.7058506 C27.623747,13.7058506 26.6318121,13.6821148 25.5920096,13.6579091 L25.5920096,14.7194416 L25.9789482,14.7194416 C27.3821541,14.7194416 27.6480638,15.201974 27.6480638,16.6256494 L27.6480638,23.137987 C27.6480638,25.8398571 26.7772634,27.0940909 24.2365659,27.0940909 C21.6482743,27.0940909 20.8014272,25.8394675 20.8014272,23.0892857 L20.8014272,16.5527922 C20.8014272,15.1778961 21.043872,14.7196364 22.3743776,14.7196364 L22.7849844,14.7196364 L22.7849844,13.6581039 C21.744752,13.6823084 20.7044806,13.7060455 19.639865,13.7060455 C18.5752104,13.7060455 17.5104776,13.6823096 16.4222213,13.6581039 L16.4222213,13.6579091 Z M32.8493193,13.6579091 L32.8493193,14.7194416 L33.2370238,14.7194416 C34.4706805,14.7194416 34.8328726,15.2254675 34.8328726,16.5525974 L34.8328726,25.551039 C34.8328726,26.9013117 34.4948254,27.3841948 33.2370238,27.3841948 L32.8493193,27.3841948 L32.8493193,28.4451039 C33.9625059,28.397213 35.0515046,28.3970455 36.1638706,28.3970455 C37.2770571,28.3970455 38.3896576,28.3972099 39.5028441,28.4451039 L39.5028441,27.3841948 L39.0922374,27.3841948 C37.8579164,27.3841948 37.519287,26.9013117 37.519287,25.551039 L37.519287,21.7386234 L38.8739609,21.7386234 C40.8820966,21.7386234 41.3412353,22.3178182 41.8977504,23.9096494 C42.1636132,24.7063636 42.3091777,26.3228571 43.1074147,28.4451039 L47.0997718,28.4451039 L47.0997718,27.3843117 L46.857839,27.3843117 C45.6242995,27.3843117 45.212247,26.6601039 44.8017966,24.9956494 C44.2201949,22.6794935 44.0750289,21.3529091 42.2122545,21.0395455 C43.9538945,20.5812078 44.9223839,19.302974 44.9223839,17.5901299 C44.9223839,14.7919481 43.0349138,13.6581818 39.0672915,13.6581818 L32.8495772,13.6581818 L32.8493193,13.6579091 Z M47.9461891,13.6579091 L47.9461891,14.7194416 L48.3331277,14.7194416 C49.5673315,14.7194416 49.9289764,15.2254675 49.9289764,16.5525974 L49.9289764,25.551039 C49.9289764,26.8771169 49.5673276,27.3841948 48.3331277,27.3841948 L47.9461891,27.3841948 L47.9461891,28.444987 L55.0341176,28.444987 C60.5265882,28.444987 63.2126471,25.9847532 63.2126471,20.8705714 C63.2126471,15.9743377 60.4065479,13.6581039 54.6480504,13.6581039 L47.9465798,13.6581039 L47.9461891,13.6579091 Z M63.7974842,13.6579091 L63.7974842,14.7194416 L64.1860757,14.7194416 C65.250574,14.7194416 65.5163274,15.2980909 65.5163274,16.5525974 L65.5163274,23.331039 C65.5163274,26.9255065 67.5239942,28.7824675 71.3714198,28.7824675 C75.459903,28.7824675 77.1045963,26.9975455 77.1045963,22.9924675 L77.1045963,16.5525974 C77.1045963,15.2734675 77.3950806,14.7194416 78.4363719,14.7194416 L78.8714009,14.7194416 L78.8714009,13.6579091 C77.9272165,13.6821136 76.9600165,13.7058506 75.9926211,13.7058506 C75.0000219,13.7058506 74.0084778,13.6821148 72.9673076,13.6579091 L72.9673076,14.7194416 L73.3557741,14.7194416 C74.7581594,14.7194416 75.0248897,15.201974 75.0248897,16.6256494 L75.0248897,23.137987 C75.0248897,25.8398571 74.1528779,27.0940909 71.6133918,27.0940909 C69.0238888,27.0940909 68.1774716,25.8394675 68.1774716,23.0892857 L68.1774716,16.5527922 C68.1774716,15.1778961 68.4197053,14.7196364 69.7496405,14.7196364 L70.1609897,14.7196364 L70.1609897,13.6581039 C69.1210308,13.6823084 68.0803687,13.7060455 67.0158703,13.7060455 C65.9505514,13.7060455 64.886014,13.6823096 63.7974842,13.6581039 L63.7974842,13.6579091 Z M80.2015588,13.7302013 L80.2015588,14.719461 L80.612908,14.719461 C81.8717685,14.719461 82.1850769,15.225487 82.1850769,16.5526169 L82.1850769,25.5510584 C82.1850769,26.8771364 81.8949638,27.3842143 80.612908,27.3842143 L80.1046122,27.3842143 L80.1046122,28.4450065 L92.1774189,28.4450065 L92.1774189,24.0315 L90.9670122,24.0315 C90.943684,26.6845519 90.5555458,26.9741104 88.2820866,26.9741104 L84.8713702,26.9741104 L84.8713702,21.4732013 L86.0566122,21.4732013 C87.8229088,21.4732013 88.2567265,21.6429506 88.2820866,23.4516818 L89.370421,23.4516818 L89.370421,18.1927208 L88.2569218,18.1927208 C88.2569218,20.0498766 87.8469013,20.1712013 86.0085492,20.1712013 L84.8713702,20.1712013 L84.8713702,15.1779545 L88.3782517,15.1779545 C90.3137067,15.1779545 90.8464248,15.322761 90.8464248,17.2043961 L90.8464248,17.5902 L92.0797298,17.5902 L92.0797298,13.7306416 L80.2015197,13.7306416 L80.2015588,13.7302013 Z M52.6157269,15.0565519 L54.3077408,15.0565519 C58.3970055,15.0565519 60.3324214,16.8421364 60.3324214,20.8465519 C60.3324214,25.0683701 58.4451857,27.0218766 54.4304382,27.0218766 L52.6155706,27.0218766 L52.6155706,15.0565519 L52.6157269,15.0565519 Z M37.5188571,15.0809026 L39.0666038,15.0809026 C41.3410399,15.0809026 42.3575143,15.9016558 42.3575143,17.8553571 C42.3575143,19.7365909 41.1719597,20.4600974 38.7285214,20.4600974 L37.5188571,20.4600974 L37.5188571,15.0807468 L37.5188571,15.0809026 Z" fill="#000000" transform="translate(46.249701, 19.371818) scale(-1, 1) rotate(-180.000000) translate(-46.249701, -19.371818) "/>
                        <path d="M0.442195462,0.0249896104 L0.442195462,0.893236364 L92.203498,0.893236364 L92.203498,0.0249896104 L0.442195462,0.0249896104 Z M62.2520274,3.26770909 C61.0096568,3.26770909 60.3302879,3.81301558 60.3302879,4.68005455 C60.3302879,5.3097039 60.7097592,5.66308052 61.4766106,5.99421039 L62.400085,6.38915844 C62.7878715,6.5546026 62.9533959,6.72711039 62.9533959,7.06641818 C62.9533959,7.53921039 62.6305726,7.79997662 62.0375413,7.79997662 C61.3019425,7.79997662 60.9232606,7.48388571 60.9232606,6.86171688 C60.9232606,6.83041948 60.9316618,6.79089351 60.9316618,6.75061558 L60.3531471,6.75061558 L60.3531471,8.11347273 C60.9470967,8.24814156 61.5321371,8.31969351 62.093224,8.31969351 C63.3731463,8.31969351 64.0599787,7.79099221 64.0599787,6.87766753 C64.0599787,6.29371948 63.71954,5.87668052 63.0319379,5.6007974 L62.0291009,5.19977143 C61.6104446,5.03366494 61.4208497,4.84445455 61.4208497,4.50501818 C61.4208497,4.08762857 61.7758987,3.79655065 62.345848,3.79655065 C63.0012635,3.79655065 63.3021459,4.06428312 63.3021459,4.66253766 C63.3021459,4.70961818 63.3019739,4.76607273 63.2930022,4.82157662 L63.902035,4.82157662 L63.902035,3.48914805 C63.3102345,3.34697532 62.7568845,3.26770909 62.2520274,3.26770909 L62.2520274,3.26770909 Z M0.973624034,3.37881818 L0.973624034,3.7965974 L1.0682613,3.7965974 C1.38428546,3.7965974 1.45519992,4.00103766 1.45519992,4.4107013 L1.45519992,6.64184416 C1.45519992,7.75955844 2.09549319,8.31974026 3.39983773,8.31974026 C4.79069571,8.31974026 5.33455034,7.73594805 5.33455034,6.44396104 L5.33455034,4.41066234 C5.33455034,3.99311688 5.44636525,3.79655844 5.73140244,3.79655844 L5.84893412,3.79655844 L5.84893412,3.37874026 C5.53250748,3.38691039 5.2167295,3.3939974 4.88501647,3.3939974 C4.5610795,3.3939974 4.23761143,3.38696104 3.89745807,3.37874026 L3.89745807,3.79655844 L3.99209534,3.79655844 C4.39488693,3.79655844 4.49808567,3.97718571 4.49808567,4.41066234 L4.49808567,6.51545455 C4.49808567,7.27979221 4.19701576,7.64166234 3.47844618,7.64166234 C2.73507139,7.64166234 2.49088777,7.28724935 2.49088777,6.53064935 L2.49088777,4.41062338 C2.49088777,3.95388312 2.57045357,3.79651948 3.00453693,3.79651948 L3.0991742,3.79651948 L3.0991742,3.37874026 C2.75887235,3.38687143 2.40397966,3.39395844 2.04823513,3.39395844 C1.70068084,3.39395844 1.33635529,3.38692208 0.973624034,3.37874026 L0.973624034,3.37881818 Z M11.3814182,3.37881818 L11.3814182,3.7965974 L11.4760554,3.7965974 C11.8790033,3.7965974 11.9897046,3.97722468 11.9897046,4.4107013 L11.9897046,7.16918182 C11.9897046,7.60223377 11.8790268,7.79088312 11.4760554,7.79088312 L11.3814182,7.79088312 L11.3814182,8.20866234 C11.7285661,8.19327273 12.069032,8.19344416 12.4086774,8.19344416 C12.7485885,8.19344416 13.0881245,8.1932739 13.4283169,8.20866234 L13.4283169,7.79088312 L13.3329176,7.79088312 C12.920279,7.79088312 12.8249345,7.60231169 12.8249345,7.16906494 L12.8089056,4.26981818 L14.666522,8.20838961 L16.0105283,8.20838961 L16.0105283,4.41046753 C16.0105283,3.97698701 16.1121523,3.79636364 16.5157762,3.79636364 L16.6104135,3.79636364 L16.6104135,3.37858442 C16.2630077,3.38671558 15.9230732,3.3938026 15.5755345,3.3938026 C15.2352366,3.3938026 14.9040589,3.38676623 14.5642963,3.37858442 L14.5642963,3.79636364 L14.6589335,3.79636364 C15.0700482,3.79636364 15.1641814,3.97699091 15.1641814,4.41046753 L15.1878417,7.33406494 L13.3309678,3.37874026 L11.3794917,3.37874026 L11.3814182,3.37881818 Z M22.2311576,3.37881818 L22.2311576,3.7965974 L22.3257949,3.7965974 C22.7294071,3.7965974 22.8317853,3.97722468 22.8317853,4.4107013 L22.8317853,7.16918182 C22.8317853,7.60223377 22.7294032,7.79088312 22.3257949,7.79088312 L22.2311576,7.79088312 L22.2311576,8.20866234 C22.6105,8.19327273 22.9900064,8.19344416 23.3690791,8.19344416 C23.7402389,8.19344416 24.1203081,8.1932739 24.4993808,8.20866234 L24.4993808,7.79088312 L24.397112,7.79088312 C23.9938906,7.79088312 23.8911217,7.60224156 23.8911217,7.16918182 L23.8911217,4.4107013 C23.8911217,3.97722078 23.9939101,3.7965974 24.397112,3.7965974 L24.4993808,3.7965974 L24.4993808,3.37881818 C24.1203081,3.38694935 23.7402585,3.39403636 23.3690791,3.39403636 C22.9900103,3.39403636 22.6105039,3.387 22.2311576,3.37881818 Z M29.9364812,3.37877143 L29.9364812,3.7965974 C30.2051496,3.82053506 30.3159016,3.98551169 30.4417291,4.33231169 L31.9124186,8.28763636 L33.0572173,8.28763636 L34.4798047,4.30036364 C34.5828159,4.00117792 34.7015784,3.85184416 34.985795,3.7965974 L34.985795,3.37877143 C34.7015667,3.38694935 34.3937992,3.39403636 34.069198,3.39403636 C33.7373365,3.39403636 33.3892039,3.387 33.0098967,3.37877143 L33.0098967,3.7965974 C33.3972769,3.7965974 33.5800102,3.87477662 33.5800102,4.07967273 C33.5800102,4.1349 33.5716949,4.20595714 33.5479564,4.28512987 L32.5265195,7.34941558 L31.4597547,4.26993506 C31.428885,4.18266234 31.4120825,4.11175325 31.4120825,4.05603896 C31.4120825,3.83577273 31.5783532,3.81286753 31.9814144,3.79655065 L31.9814144,3.37877143 C31.5465417,3.3869026 31.1510573,3.39398961 30.811451,3.39398961 C30.4718212,3.39398961 30.179598,3.38695325 29.9345547,3.37877143 L29.9364812,3.37877143 Z M50.1045862,3.37881818 L50.1045862,3.7965974 L50.1999855,3.7965974 C50.6022691,3.7965974 50.7044518,3.97722468 50.7044518,4.4107013 L50.7044518,7.16918182 C50.7044518,7.60223377 50.6022495,7.79088312 50.1999855,7.79088312 L50.1045862,7.79088312 L50.1045862,8.20866234 C50.4843271,8.19327273 50.8642555,8.19344416 51.2425076,8.19344416 C51.6146053,8.19344416 51.9938148,8.1932739 52.3735518,8.20866234 L52.3735518,7.79088312 L52.2705211,7.79088312 C51.8675732,7.79088312 51.7652732,7.60224156 51.7652732,7.16918182 L51.7652732,6.0734026 L52.1438183,6.0734026 C52.577636,6.0734026 52.8236171,6.19975325 52.9337322,6.51553247 C53.0842359,6.93307792 53.1086972,7.53915584 53.4000608,8.20866234 L54.8547292,8.20866234 L54.8547292,7.79088312 L54.8150401,7.79088312 C54.5941182,7.79088312 54.4276561,7.72808571 54.3082683,7.58618571 C54.1666191,7.4214039 54.1113037,7.0666013 53.9846713,6.57791299 C53.8506848,6.08197792 53.7402258,5.85308182 53.2893986,5.78957532 C53.8421624,5.65623117 54.1434355,5.27018571 54.1434355,4.68008182 C54.1434355,3.72580909 53.4943503,3.37881818 52.1118154,3.37881818 L50.1045862,3.37881818 L50.1045862,3.37881818 Z M69.7658803,3.37881818 L69.7658803,3.7965974 L69.8620455,3.7965974 C70.2643291,3.7965974 70.3672934,3.97722468 70.3672934,4.4107013 L70.3672934,7.16918182 C70.3672934,7.60223377 70.2643252,7.79088312 69.8620455,7.79088312 L69.7658803,7.79088312 L69.7658803,8.20866234 C70.1462894,8.19327273 70.5255106,8.19344416 70.9045833,8.19344416 C71.2760089,8.19344416 71.655148,8.1932739 72.034885,8.20866234 L72.034885,7.79088312 L71.9318542,7.79088312 C71.5281248,7.79088312 71.4258639,7.60224156 71.4258639,7.16918182 L71.4258639,4.4107013 C71.4258639,3.97722078 71.5281131,3.7965974 71.9318542,3.7965974 L72.034885,3.7965974 L72.034885,3.37881818 C71.6551441,3.38694935 71.2760362,3.39403636 70.9045833,3.39403636 C70.5255145,3.39403636 70.1462816,3.387 69.7658803,3.37881818 Z M77.6138299,3.37881039 L77.6138299,4.83681818 L78.111419,4.83681818 C78.1032131,4.75764156 78.1037992,4.69484805 78.1037992,4.63212078 C78.1037992,4.10384805 78.2849109,3.96245844 78.8143505,3.96245844 L79.2409782,3.96245844 L79.2409782,7.16914675 C79.2409782,7.6021987 79.1393542,7.79084805 78.7357303,7.79084805 L78.5693541,7.79084805 L78.5693541,8.20862727 C78.9729663,8.19323766 79.3761096,8.19340909 79.778276,8.19340909 C80.1737213,8.19340909 80.5773726,8.19323883 80.9803205,8.20862727 L80.9803205,7.79084805 L80.8139443,7.79084805 C80.4102149,7.79084805 80.3079539,7.60220649 80.3079539,7.16914675 L80.3079539,3.96245844 L80.6559693,3.96245844 C81.2402672,3.96245844 81.4145836,4.08768312 81.4145836,4.70973117 L81.4145836,4.83681039 L81.9358525,4.83681039 L81.9358525,3.37881039 C81.0902559,3.37881039 80.5842265,3.39402857 80.4193664,3.39402857 L79.0837613,3.39402857 C78.9256105,3.39402857 78.435184,3.37881039 77.6138299,3.37881039 L77.6138299,3.37881039 Z M87.3108383,3.3788026 L87.3108383,3.7965974 C87.6338453,3.81291818 87.7928362,3.99294156 87.9816887,4.31633766 L89.0875682,6.23166234 L89.0875682,7.22396104 C89.0875682,7.64107792 89.0012032,7.79088312 88.5510597,7.79088312 L88.4403976,7.79088312 L88.4403976,8.20866234 C88.8276449,8.19327273 89.2137434,8.19344416 89.5928161,8.19344416 C89.9807394,8.19344416 90.3600661,8.1932739 90.731519,8.20866234 L90.731519,7.79088312 L90.6208568,7.79088312 C90.1624997,7.79088312 90.0835669,7.64110519 90.0835669,7.22396104 L90.0835669,6.24611688 L91.2619316,4.32319481 C91.4740029,3.97706494 91.6239517,3.7965974 91.8770602,3.7965974 L91.9091022,3.7965974 L91.9091022,3.3788026 C91.6005923,3.38694935 91.2854551,3.39403636 90.9680829,3.39403636 C90.6452166,3.39403636 90.3205215,3.387 89.9805245,3.3788026 L89.9805245,3.7965974 C90.2486614,3.7965974 90.368225,3.86788052 90.368225,4.04923636 C90.368225,4.12733766 90.3358704,4.2384974 90.2804573,4.34829351 L89.6645472,5.55441039 L89.0478947,4.30870909 C88.9918133,4.1988974 88.9532574,4.10404675 88.9532574,4.02487013 C88.9532574,3.86772078 89.0647636,3.79658182 89.3165396,3.79658182 L89.3569868,3.79658182 L89.3569868,3.3788026 C89.0012579,3.38693377 88.6453414,3.39402078 88.3053053,3.39402078 C87.9659374,3.39402078 87.6338687,3.38698442 87.3108383,3.3788026 L87.3108383,3.3788026 Z M40.4239896,3.39403636 L40.4239896,3.79658182 L40.5186229,3.79658182 C40.9216881,3.79658182 41.0246133,3.97720909 41.0246133,4.41068571 L41.0246133,7.16916623 C41.0246133,7.58589351 40.9453054,7.79086753 40.5186229,7.79086753 L40.4239896,7.79086753 L40.4239896,8.20864675 L44.3909476,8.20864675 L44.3909476,6.69660779 L43.9475173,6.69660779 C43.9322387,7.53933506 43.7585319,7.64172468 42.9683602,7.64172468 L42.0830627,7.64172468 L42.0830627,5.97142597 L42.3913929,5.97142597 C42.8811277,5.97142597 43.0003475,6.06579351 43.0240664,6.58552987 L43.4506941,6.58552987 L43.4506941,4.83684156 L43.0240664,4.83684156 C43.0156261,5.37263377 42.8812371,5.46691948 42.3593118,5.46691948 L42.0830353,5.46691948 L42.0830353,3.96251688 L43.0545727,3.96251688 C43.6393786,3.96251688 43.9002084,4.05631558 43.9002084,4.51346494 L43.9002084,4.72729481 L44.350516,4.72729481 L44.350516,3.39408701 L40.4238059,3.39408701 L40.4239896,3.39403636 Z M51.7656913,3.96247792 L52.1686392,3.96247792 C52.8322215,3.96247792 53.1317753,4.18237013 53.1317753,4.78128312 C53.1317753,5.35665974 52.8157589,5.56128312 52.1281568,5.56128312 L51.7656405,5.56128312 L51.7656405,3.96251688 L51.7656913,3.96247792 Z" fill="#C28E0E" transform="translate(46.322847, 4.172365) scale(-1, 1) rotate(-180.000000) translate(-46.322847, -4.172365) "/>
                    </g>
                </g>
            </g>
        </g>
    </g>
</svg>